<?xml version="1.0" standalone="no"?>
<!DOCTYPE svg PUBLIC "-//W3C//DTD SVG 20010904//EN"
 "http://www.w3.org/TR/2001/REC-SVG-20010904/DTD/svg10.dtd">
<svg version="1.0" xmlns="http://www.w3.org/2000/svg"
 width="757.000000pt" height="757.000000pt" viewBox="0 0 757.000000 757.000000"
 preserveAspectRatio="xMidYMid meet">
<metadata>
Created by potrace 1.11, written by Peter Selinger 2001-2013
</metadata>
<g transform="translate(0.000000,757.000000) scale(0.100000,-0.100000)"
fill="#000000" stroke="none">
<path d="M2019 7116 c-2 -2 -56 -7 -119 -10 -118 -7 -132 -8 -235 -20 -340
-39 -668 -130 -871 -241 -186 -103 -365 -262 -467 -416 -138 -209 -239 -515
-272 -825 -3 -27 -7 -62 -10 -79 -6 -43 -14 -146 -20 -245 -7 -109 -7 -2335
-1 -2455 7 -124 17 -255 21 -276 2 -10 6 -44 10 -75 16 -153 70 -388 118 -515
177 -470 518 -747 1092 -888 66 -16 170 -37 230 -46 61 -10 117 -19 125 -20 8
-2 51 -6 95 -10 44 -4 94 -9 110 -11 17 -2 82 -7 145 -11 159 -10 2997 -10
3145 1 66 4 136 9 155 11 19 1 60 5 90 9 30 4 71 9 90 11 261 30 504 91 705
175 320 135 552 349 688 633 50 105 73 158 82 192 5 17 9 35 11 40 11 36 45
163 48 180 4 18 9 49 22 120 2 11 7 40 10 65 3 25 7 52 9 60 2 8 7 47 11 85 3
39 8 77 9 86 25 132 25 2660 0 2787 -2 11 -6 54 -10 96 -3 41 -7 83 -9 93 -2
10 -7 38 -11 63 -9 59 -16 103 -19 115 -2 6 -6 28 -11 50 -107 556 -431 932
-955 1109 -154 52 -240 73 -435 106 -101 17 -154 24 -275 36 -25 2 -67 7 -95
10 -53 7 -3199 17 -3206 10z m1951 -970 c74 -4 153 -9 175 -11 22 -1 76 -6
120 -9 44 -4 94 -9 110 -11 17 -2 57 -7 90 -10 33 -3 71 -8 85 -10 14 -2 45
-7 70 -10 25 -4 86 -13 135 -22 50 -8 97 -16 105 -17 305 -50 648 -175 766
-279 51 -46 91 -114 81 -140 -10 -27 -356 -126 -532 -153 -11 -2 -60 -10 -110
-18 -49 -8 -110 -18 -135 -21 -25 -3 -52 -8 -60 -10 -8 -2 -44 -7 -80 -10 -36
-4 -76 -8 -90 -10 -14 -2 -59 -7 -100 -11 -41 -3 -88 -8 -105 -9 -36 -4 -199
-16 -270 -21 -355 -23 -1137 -22 -1385 1 -19 2 -78 6 -130 10 -52 3 -111 8
-130 10 -19 2 -64 7 -100 10 -36 3 -81 8 -100 10 -19 3 -55 7 -80 10 -113 13
-197 25 -255 35 -27 5 -102 19 -165 30 -182 33 -493 120 -517 144 -7 7 22 73
46 104 31 39 133 109 211 144 154 70 432 148 650 183 19 3 60 10 90 15 30 5
73 11 95 15 22 3 51 7 65 10 14 2 56 7 93 10 37 4 76 8 85 10 9 1 58 6 107 10
50 4 106 8 125 10 19 2 109 7 200 10 91 4 166 8 167 9 5 5 554 -2 673 -8z
m-2465 -985 c44 -12 89 -23 100 -25 11 -3 49 -11 85 -20 36 -8 81 -18 100 -21
19 -3 42 -8 50 -10 18 -5 57 -12 119 -21 25 -4 55 -8 66 -11 34 -6 287 -41
345 -47 124 -12 177 -18 210 -21 19 -2 78 -7 130 -10 52 -4 111 -9 130 -10
352 -33 1220 -23 1655 19 176 18 201 20 295 31 53 6 222 30 285 41 193 32 317
57 484 100 89 23 137 32 144 25 6 -6 11 -139 13 -340 l3 -329 -32 -15 c-73
-34 -313 -97 -521 -137 -109 -21 -131 -25 -216 -36 -30 -4 -64 -8 -75 -10 -82
-10 -207 -26 -240 -29 -51 -6 -225 -20 -350 -30 -345 -26 -1116 -26 -1490 0
-134 10 -398 34 -437 40 -13 2 -48 6 -79 10 -31 3 -65 7 -75 9 -11 2 -41 7
-69 10 -76 11 -115 17 -139 22 -11 2 -37 7 -56 10 -19 2 -46 7 -60 10 -14 2
-38 7 -54 10 -62 11 -303 76 -380 102 l-81 27 0 280 c0 154 2 309 3 343 4 74
-6 71 137 33z m28 -1120 c101 -26 313 -72 399 -86 18 -3 44 -8 58 -10 14 -3
42 -7 62 -10 21 -2 53 -7 70 -10 35 -6 78 -11 167 -21 30 -3 62 -7 72 -9 10
-2 49 -6 86 -10 37 -3 85 -8 105 -10 21 -2 75 -7 120 -10 46 -3 101 -8 123
-10 269 -26 1265 -27 1485 -1 14 2 70 7 125 10 55 4 116 9 135 11 19 2 62 6
95 9 107 11 179 20 280 36 33 5 80 12 105 15 47 6 165 26 260 45 30 6 68 13
84 16 38 6 337 84 346 89 4 2 6 -152 6 -343 l-1 -347 -95 -32 c-92 -31 -253
-75 -315 -87 -16 -3 -91 -16 -165 -30 -74 -13 -155 -27 -180 -30 -25 -3 -55
-8 -67 -10 -12 -3 -53 -8 -90 -11 -37 -4 -76 -9 -86 -11 -10 -2 -48 -6 -85 -9
-37 -4 -78 -8 -92 -10 -14 -2 -72 -7 -130 -10 -58 -4 -117 -8 -132 -10 -203
-25 -1347 -25 -1477 0 -9 1 -65 6 -126 10 -60 3 -123 8 -140 11 -16 2 -50 6
-75 8 -96 10 -156 16 -190 21 -19 3 -48 7 -65 9 -60 8 -122 17 -210 32 -49 9
-103 18 -120 21 -66 10 -355 84 -430 111 l-80 28 -1 340 c-1 186 1 342 3 346
2 4 15 3 29 -2 14 -6 76 -23 137 -39z m-22 -1105 c74 -19 181 -44 239 -55 58
-12 116 -23 130 -26 14 -3 41 -8 60 -11 19 -2 46 -7 60 -10 48 -9 66 -12 125
-20 33 -4 62 -8 65 -9 3 0 37 -5 75 -9 39 -4 81 -9 95 -11 14 -2 54 -6 90 -10
36 -3 76 -8 90 -10 14 -2 68 -6 120 -10 52 -4 111 -8 130 -10 282 -27 1226
-27 1502 0 24 2 79 7 123 9 44 3 100 8 125 11 25 3 65 7 90 9 89 9 161 17 182
21 11 3 46 7 77 11 31 3 65 8 76 10 11 2 38 6 60 9 22 3 51 7 65 10 23 5 101
18 160 29 73 12 355 79 404 95 31 10 58 16 60 12 2 -3 3 -123 4 -266 0 -225
-2 -265 -17 -300 -42 -97 -212 -197 -468 -276 -53 -16 -105 -31 -117 -33 -12
-3 -70 -16 -131 -30 -60 -14 -126 -27 -145 -30 -19 -3 -44 -7 -55 -10 -11 -2
-56 -9 -100 -16 -44 -6 -91 -13 -105 -15 -14 -2 -52 -7 -85 -11 -33 -3 -68 -8
-78 -10 -10 -2 -53 -6 -95 -9 -42 -3 -97 -8 -122 -10 -160 -14 -351 -20 -675
-20 -368 1 -519 6 -750 29 -22 3 -71 8 -110 11 -38 4 -77 9 -85 10 -8 1 -44 6
-80 11 -36 4 -67 8 -70 9 -3 1 -30 5 -60 9 -30 5 -64 10 -75 12 -11 2 -33 6
-50 9 -16 3 -50 10 -75 15 -25 5 -57 12 -71 14 -56 9 -263 68 -351 100 -184
66 -311 145 -359 223 -24 38 -24 41 -25 315 0 153 2 275 6 273 4 -3 68 -20
141 -39z"/>
<path d="M6540 1024 c-50 -32 -202 -109 -292 -148 -125 -55 -410 -131 -598
-161 -104 -16 -177 -25 -330 -41 -30 -3 -56 -6 -57 -7 -2 -3 33 -42 191 -211
61 -65 127 -135 146 -156 19 -21 82 -88 140 -150 58 -62 108 -117 111 -123 5
-7 1274 -14 1673 -8 l48 1 -65 68 c-36 37 -78 81 -93 97 -35 39 -200 218 -250
271 -37 40 -183 197 -309 333 -33 35 -80 85 -103 110 -24 25 -67 72 -95 104
-28 31 -53 57 -56 56 -3 0 -31 -16 -61 -35z"/>
</g>
</svg>
